<?xml version="1.0" standalone="no"?>
<!DOCTYPE svg PUBLIC "-//W3C//DTD SVG 20010904//EN"
 "http://www.w3.org/TR/2001/REC-SVG-20010904/DTD/svg10.dtd">
<svg version="1.0" xmlns="http://www.w3.org/2000/svg"
 width="260.000000pt" height="260.000000pt" viewBox="0 0 260.000000 260.000000"
 preserveAspectRatio="xMidYMid meet">
<metadata>
Created by potrace 1.14, written by Peter Selinger 2001-2017
</metadata>
<g transform="translate(0.000000,260.000000) scale(0.100000,-0.100000)"
fill="#000000" stroke="none">
<path d="M1238 2488 c-7 -17 15 -19 29 -3 4 4 3 5 -4 2 -6 -4 -13 -2 -15 5 -3
8 -6 6 -10 -4z"/>
<path d="M1332 2495 c10 -17 -7 -36 -25 -29 -9 3 -14 11 -10 18 4 6 -1 5 -10
-3 -9 -7 -30 -15 -46 -16 -23 -2 -28 1 -23 14 5 13 3 14 -9 4 -21 -17 -65 -21
-61 -5 1 8 -2 11 -8 7 -6 -4 -8 -16 -5 -28 5 -17 4 -19 -4 -7 -11 17 -74 23
-64 7 4 -7 -1 -8 -13 -3 -33 13 -39 12 -36 -8 3 -18 2 -18 -14 -5 -10 7 -15 9
-11 2 5 -8 -2 -11 -22 -11 -19 1 -28 5 -24 12 4 6 -2 4 -13 -5 -10 -9 -27 -15
-37 -14 -9 2 -15 0 -13 -4 3 -4 1 -13 -5 -21 -6 -10 -9 -11 -9 -2 0 6 -4 12
-10 12 -5 0 -10 -7 -10 -17 0 -14 -3 -14 -22 3 -12 10 -19 14 -15 8 9 -16 -29
-48 -45 -38 -9 5 -8 2 2 -11 11 -14 11 -17 1 -11 -8 5 -17 3 -23 -5 -6 -10 -7
-6 -2 11 6 23 6 23 -11 6 -10 -9 -24 -15 -33 -11 -12 4 -13 3 -2 -10 10 -12
10 -15 0 -15 -9 0 -9 -4 1 -17 12 -16 12 -17 -2 -5 -18 14 -53 6 -43 -10 4 -6
-4 -5 -16 2 -12 6 -24 9 -28 6 -3 -3 1 -6 8 -6 9 0 6 -7 -8 -20 -22 -21 -37
-27 -27 -10 9 15 -4 12 -21 -4 -8 -8 -10 -17 -5 -20 5 -4 12 0 14 6 4 10 6 10
6 1 1 -7 -9 -17 -20 -24 -15 -8 -19 -8 -15 0 14 22 -14 10 -46 -20 -18 -18
-27 -29 -20 -25 18 11 15 -2 -7 -26 -11 -11 -27 -18 -35 -15 -10 4 -13 1 -9
-8 3 -8 10 -12 16 -8 6 3 7 1 3 -6 -4 -6 -11 -9 -16 -6 -4 3 -11 -1 -13 -7 -4
-10 -6 -10 -6 0 -1 6 -6 12 -12 12 -5 0 -8 -4 -4 -9 3 -6 -8 -20 -25 -33 -29
-21 -30 -23 -13 -36 16 -11 15 -12 -7 -10 -20 2 -24 -1 -22 -16 2 -12 -1 -16
-9 -10 -9 5 -11 1 -7 -13 4 -16 1 -20 -16 -19 -11 1 -21 -5 -21 -12 0 -7 -7
-17 -15 -22 -8 -5 -10 -10 -4 -10 16 0 35 25 27 34 -4 4 0 4 10 0 15 -5 13 -9
-10 -28 -15 -11 -31 -20 -35 -19 -4 2 -4 -5 -1 -14 4 -11 3 -14 -5 -9 -7 4
-12 2 -12 -3 0 -6 6 -11 13 -11 8 0 7 -4 -3 -10 -8 -5 -11 -10 -6 -10 5 0 1
-9 -9 -20 -10 -11 -15 -20 -10 -20 4 0 3 -6 -3 -12 -6 -7 -10 -17 -10 -21 0
-5 -4 -12 -8 -15 -4 -4 -4 -1 0 6 4 6 2 12 -4 12 -6 0 -10 -10 -8 -22 2 -17
-2 -23 -15 -22 -18 2 -18 1 0 -19 10 -11 12 -17 5 -13 -9 5 -12 3 -11 -5 2 -8
-4 -27 -14 -44 -9 -16 -16 -25 -17 -20 0 6 7 21 16 33 14 20 14 22 -2 22 -10
0 -14 -3 -11 -6 3 -4 2 -15 -4 -26 -8 -15 -7 -24 5 -37 14 -15 14 -18 1 -18
-8 0 -11 5 -8 10 4 6 1 7 -6 3 -7 -5 -10 -11 -7 -14 3 -3 0 -12 -7 -21 -11
-14 -10 -14 5 -2 11 8 18 9 18 3 0 -6 -5 -14 -11 -17 -6 -4 -8 -13 -5 -21 3
-8 1 -14 -3 -14 -5 0 -11 6 -14 13 -3 6 -4 2 -4 -10 1 -18 6 -22 22 -18 15 5
14 2 -5 -9 -14 -9 -19 -15 -13 -16 10 0 10 -6 1 -26 -10 -21 -9 -27 3 -35 10
-6 11 -9 1 -9 -7 0 -10 -4 -7 -10 4 -6 -1 -7 -12 -3 -16 6 -17 5 -3 -12 9 -11
10 -16 2 -11 -6 4 -12 3 -12 -2 0 -5 9 -12 20 -15 13 -3 18 -10 14 -21 -3 -9
-11 -16 -16 -16 -6 0 -5 6 2 15 10 12 9 15 -4 15 -10 0 -14 -4 -11 -10 3 -5 0
-10 -7 -10 -8 0 -6 -5 5 -11 18 -10 18 -11 0 -25 -17 -13 -17 -14 1 -7 14 4
17 2 14 -8 -3 -8 -11 -13 -17 -11 -9 2 -9 -3 -2 -17 6 -10 7 -21 4 -25 -3 -3
-1 -6 6 -6 8 0 10 8 6 23 -5 16 -4 18 4 8 5 -8 8 -32 6 -53 -2 -21 1 -40 6
-43 5 -4 5 -13 -1 -25 -13 -25 -13 -33 2 -24 9 5 9 2 -1 -9 -7 -9 -9 -17 -4
-17 5 0 10 -7 10 -15 0 -11 -4 -12 -11 -5 -5 5 -14 10 -20 10 -5 0 3 -10 17
-23 19 -16 24 -26 17 -37 -5 -8 -6 -18 -4 -22 3 -4 0 -8 -7 -8 -7 0 -5 -6 6
-13 12 -9 15 -19 10 -28 -7 -12 -6 -12 7 -1 13 10 18 10 24 1 4 -7 3 -9 -3 -6
-6 4 -13 1 -15 -6 -7 -16 2 -38 12 -32 4 3 11 -2 14 -11 3 -8 2 -12 -4 -9 -6
3 -10 1 -10 -4 0 -6 6 -11 14 -11 7 0 16 -9 19 -19 3 -14 0 -18 -12 -15 -9 3
-6 -1 7 -7 12 -7 22 -21 22 -31 0 -12 -4 -16 -12 -12 -7 4 -8 3 -4 -5 4 -6 17
-9 29 -6 12 2 17 2 10 -1 -7 -3 -9 -12 -6 -21 5 -11 3 -14 -6 -9 -9 6 -9 3 1
-13 7 -12 18 -19 25 -17 8 3 10 -1 6 -12 -6 -15 -5 -15 10 -3 15 12 17 12 12
-2 -4 -8 -1 -18 5 -22 8 -5 8 -11 -1 -21 -11 -14 -6 -29 10 -29 14 0 38 -30
33 -43 -2 -7 0 -12 5 -11 20 4 34 -2 28 -11 -4 -6 -11 -7 -17 -4 -7 4 -8 2 -4
-5 4 -6 12 -9 17 -6 8 6 13 -9 10 -29 -1 -5 5 -4 13 4 18 14 22 1 6 -18 -7 -9
-7 -9 2 -2 18 15 28 12 28 -8 0 -11 16 -27 42 -40 27 -14 33 -20 18 -17 -21 5
-22 4 -7 -5 9 -6 15 -16 11 -22 -4 -6 2 -6 15 1 12 7 21 8 21 2 0 -5 -6 -12
-12 -14 -8 -3 -5 -6 5 -6 12 -1 16 -5 11 -13 -5 -8 0 -7 11 2 11 9 16 10 11 3
-4 -8 -2 -13 5 -13 7 0 9 -8 6 -21 -4 -16 -3 -18 9 -8 11 9 14 9 14 -1 0 -10
3 -10 15 0 13 11 14 10 9 -5 -5 -13 -4 -16 4 -11 7 4 12 2 12 -4 0 -6 5 -8 12
-4 8 5 7 0 -2 -11 -14 -16 -13 -17 7 -11 13 4 24 2 29 -5 4 -8 3 -9 -4 -5 -7
4 -12 5 -12 2 0 -3 10 -10 21 -17 13 -7 19 -7 15 -1 -3 6 -2 14 4 17 6 4 9 1
8 -7 -2 -8 7 -13 24 -13 14 0 30 -3 34 -7 3 -4 -3 -6 -15 -3 -11 2 -21 0 -21
-6 0 -8 13 -12 26 -6 3 1 12 -9 20 -23 8 -14 13 -18 12 -8 -2 9 0 17 5 17 4 1
7 -2 6 -5 -1 -10 44 -44 52 -38 5 2 21 -2 37 -10 23 -12 32 -12 42 -3 8 8 11
8 7 1 -4 -7 1 -18 10 -25 17 -15 20 -14 41 3 10 8 11 6 6 -8 -6 -15 -4 -17 6
-7 10 10 17 10 28 1 10 -9 16 -8 23 3 8 10 8 7 3 -11 -3 -14 -3 -22 1 -18 5 4
14 3 22 -3 9 -9 13 -8 13 0 0 6 -5 11 -11 11 -5 0 -7 5 -3 11 4 8 12 3 20 -12
12 -22 13 -22 14 -4 1 11 4 14 7 8 2 -7 16 -13 29 -13 18 0 24 -6 25 -22 1
-22 1 -22 9 2 4 14 8 20 9 13 1 -7 8 -10 18 -6 12 5 14 3 8 -7 -6 -10 -4 -10
11 -2 11 6 27 7 41 1 24 -9 34 5 11 14 -10 4 -10 6 -1 6 6 1 15 -3 18 -9 3 -5
15 -10 26 -10 11 0 18 -4 15 -9 -4 -5 5 -4 18 2 13 7 22 16 18 22 -3 5 2 4 11
-4 11 -9 31 -12 57 -8 27 3 38 2 33 -5 -3 -7 -1 -8 6 -4 9 6 9 11 -1 24 -11
13 -11 14 1 8 8 -5 17 -3 23 5 8 11 9 10 4 -4 -4 -13 -1 -17 12 -15 9 1 22 -1
28 -4 6 -4 11 -1 11 7 0 8 -5 11 -11 8 -6 -3 -7 -2 -3 2 10 11 39 16 32 5 -3
-4 1 -10 9 -13 10 -4 12 0 9 14 -3 11 0 19 6 19 7 0 10 -4 6 -9 -3 -5 -1 -12
5 -16 5 -3 10 -2 10 2 0 12 41 10 60 -1 8 -5 12 -6 8 -1 -4 4 -2 15 5 23 10
13 9 14 -2 7 -10 -5 -12 -4 -7 4 6 9 11 9 24 -1 9 -7 13 -8 10 -3 -4 6 2 16
12 23 14 9 21 9 26 0 5 -7 3 -8 -6 -3 -9 6 -11 4 -5 -5 6 -10 11 -9 21 5 7 10
11 21 9 26 -3 4 -1 10 4 14 6 3 8 -2 7 -12 -3 -13 2 -18 18 -18 17 0 22 5 20
22 -1 16 2 20 14 16 9 -4 13 -2 9 4 -3 5 1 10 9 10 10 0 11 -4 4 -11 -5 -5
-10 -14 -10 -20 0 -5 9 1 20 14 11 12 17 27 13 33 -3 6 -1 7 6 3 6 -4 9 -11 7
-15 -3 -4 1 -8 9 -8 8 0 12 4 9 9 -6 9 13 28 48 48 12 7 19 6 24 -2 5 -7 3 -8
-6 -3 -9 6 -11 4 -5 -4 5 -9 13 -7 29 8 12 12 24 20 27 19 2 -2 3 -1 2 1 -2 2
3 11 10 20 10 14 10 14 -5 3 -12 -10 -18 -10 -24 -1 -4 7 -3 9 4 5 6 -3 13 -2
17 3 3 6 12 8 20 5 8 -4 12 -11 8 -17 -3 -6 -1 -7 6 -3 8 5 9 12 2 20 -7 8 -5
12 9 13 11 1 29 11 41 22 12 11 27 17 33 14 6 -4 3 6 -8 21 l-19 29 34 -23 34
-24 -20 24 c-11 13 -15 20 -9 17 7 -4 15 0 18 9 5 14 9 14 23 3 15 -13 15 -12
4 10 -7 13 -9 21 -4 18 11 -7 34 19 25 29 -4 4 1 4 10 1 20 -7 34 8 17 19 -8
5 -9 3 -4 -6 5 -9 4 -11 -4 -6 -6 4 -9 12 -5 17 3 5 10 7 15 4 5 -4 19 1 31
11 13 9 16 14 7 11 -9 -3 -22 -1 -30 4 -11 7 -9 9 9 9 20 0 27 10 23 33 -1 5
3 6 9 2 6 -3 8 -10 5 -15 -3 -5 0 -12 7 -16 7 -4 10 -3 5 1 -4 5 -1 15 7 24
15 16 16 20 16 46 0 8 5 14 12 13 8 -2 12 8 11 26 0 28 1 28 13 11 17 -22 18
-12 3 16 -9 17 -7 21 10 26 13 3 18 10 14 21 -4 8 -2 13 3 9 6 -3 15 3 22 14
7 10 8 19 3 19 -5 0 -11 -5 -13 -12 -3 -7 -7 -4 -12 7 -4 11 -4 16 0 13 9 -10
49 19 49 35 0 6 -6 17 -14 23 -12 10 -10 11 11 9 19 -2 25 1 22 10 -3 7 -1 16
5 19 6 4 8 13 5 20 -3 8 -1 17 5 20 6 4 7 14 4 23 -5 12 -3 14 8 8 12 -8 12
-6 0 8 -9 11 -10 17 -2 17 6 0 11 5 11 11 0 5 -4 7 -10 4 -6 -3 -7 1 -4 9 3 9
11 16 18 16 7 0 7 3 1 8 -5 4 -11 13 -13 21 -3 12 -1 12 14 0 13 -10 16 -10
10 -1 -4 7 -2 20 5 28 9 10 9 18 2 25 -8 8 -11 6 -10 -6 1 -10 -5 -20 -13 -23
-13 -4 -13 -3 -2 10 10 13 10 17 0 21 -11 4 -10 6 0 6 7 1 10 6 6 13 -4 6 -3
8 3 5 6 -4 14 0 17 9 9 23 7 31 -3 16 -7 -11 -9 -10 -14 3 -4 9 -3 14 1 11 4
-2 14 -1 22 5 13 7 12 9 -2 9 -10 0 -18 5 -18 11 0 5 4 8 8 5 5 -3 9 2 9 10 0
9 -6 13 -15 9 -12 -4 -13 -3 -2 10 7 8 17 12 23 8 6 -3 7 -1 3 6 -4 6 -11 9
-16 6 -4 -3 -13 1 -19 9 -9 10 -7 17 5 27 10 8 19 12 22 9 3 -3 6 5 7 17 1 14
-3 19 -12 16 -11 -4 -11 -8 -1 -22 11 -14 11 -14 -3 -4 -9 7 -20 9 -25 5 -5
-4 1 4 12 18 24 28 28 64 7 56 -11 -5 -11 -1 -2 16 9 16 13 18 20 7 5 -8 9
-10 9 -5 0 6 -10 21 -22 34 -13 14 -18 22 -11 18 6 -3 15 -1 19 5 4 8 3 9 -4
5 -7 -4 -12 -2 -12 4 0 6 -4 9 -9 6 -10 -6 -6 37 5 55 5 8 2 10 -8 6 -12 -4
-14 -1 -11 14 3 10 10 16 17 12 6 -3 3 3 -7 14 -11 13 -15 27 -10 39 6 17 5
17 -10 5 -10 -8 -20 -11 -24 -7 -3 3 0 6 7 6 7 0 10 3 7 7 -4 3 -2 12 5 20 9
11 7 12 -8 6 -15 -5 -17 -4 -8 8 16 22 11 39 -15 52 -14 7 -26 19 -28 27 -3
10 -1 9 7 -2 6 -10 16 -18 23 -18 8 0 7 3 -2 9 -8 5 -11 16 -7 26 5 14 2 16
-21 11 -26 -6 -27 -5 -7 6 19 11 20 15 7 27 -8 7 -12 20 -9 28 3 8 2 11 -3 8
-5 -3 -12 4 -16 15 -3 11 -11 20 -16 20 -5 0 -2 -11 6 -24 13 -19 14 -26 3
-32 -7 -4 -10 -4 -6 1 4 4 2 17 -5 29 -6 11 -12 35 -12 51 -1 23 -6 31 -23 33
-15 2 -22 10 -21 25 0 21 1 21 9 2 7 -15 9 -16 9 -4 1 19 -26 45 -36 35 -3 -3
-1 -6 5 -6 7 0 9 -7 5 -17 -6 -15 -7 -14 -14 3 -3 10 -2 25 4 32 6 7 6 12 1
11 -19 -3 -49 3 -36 8 6 2 12 9 12 14 0 6 -4 8 -9 5 -5 -4 -11 -1 -13 4 -2 6
-13 12 -25 12 -20 2 -22 28 -1 28 5 0 7 -4 4 -8 -3 -5 1 -9 9 -9 12 0 12 3 3
14 -6 8 -20 12 -29 10 -22 -6 -44 17 -33 35 4 7 4 10 -1 6 -4 -4 -14 0 -22 10
-10 11 -12 12 -8 2 4 -9 0 -7 -9 4 -8 10 -19 15 -24 12 -5 -3 -7 5 -5 18 5 23
-19 42 -36 31 -5 -2 -7 7 -5 20 1 14 -2 23 -7 19 -5 -3 -6 -10 -3 -16 4 -5 -4
-4 -17 3 -13 7 -26 13 -29 14 -13 0 -58 54 -52 60 4 4 -4 2 -18 -5 -22 -12
-24 -12 -12 2 10 13 10 18 1 24 -7 4 -9 3 -6 -3 4 -6 0 -13 -8 -16 -10 -4 -12
-1 -8 10 4 11 2 14 -5 9 -7 -4 -12 -1 -13 6 0 7 -4 4 -8 -7 -7 -16 -9 -14 -14
13 -4 18 -11 32 -16 32 -6 0 -8 -8 -5 -17 5 -17 4 -17 -9 0 -11 14 -16 15 -21
5 -3 -7 -4 -3 -2 10 4 19 2 21 -10 11 -10 -8 -14 -8 -14 0 0 6 -5 10 -12 9 -7
-2 -12 2 -13 9 0 6 -4 15 -9 20 -5 4 -6 3 -3 -3 4 -6 0 -20 -8 -30 -13 -18
-14 -18 -9 6 2 14 1 19 -2 12 -5 -10 -10 -9 -21 5 -8 10 -11 12 -7 4 5 -9 3
-12 -5 -7 -6 4 -20 2 -29 -6 -15 -12 -16 -11 -3 5 7 9 10 17 5 17 -5 0 -2 5 6
11 12 9 12 10 -4 5 -11 -4 -23 -1 -28 6 -6 10 -8 10 -8 1 0 -20 -30 -15 -31 5
0 14 -2 14 -7 2 -8 -18 -26 -20 -43 -3 -6 6 -18 9 -27 6 -11 -5 -13 -3 -7 8 7
11 5 11 -10 -1 -11 -9 -16 -10 -11 -2 4 6 3 12 -1 12 -5 0 -15 -6 -22 -12 -11
-11 -12 -10 -6 1 6 10 4 13 -7 9 -8 -4 -21 -2 -28 2 -8 5 -22 4 -33 -1 -17
-10 -17 -9 -6 13 11 21 11 22 -4 9 -14 -11 -20 -11 -34 0 -9 8 -14 9 -11 4z
m-386 -77 c4 -7 4 -10 -1 -6 -4 4 -14 3 -22 -3 -7 -6 -13 -8 -13 -3 0 5 -5 2
-11 -6 -9 -13 -10 -13 -6 0 2 8 9 15 15 15 5 0 14 3 18 8 10 10 12 9 20 -5z
m688 4 c3 -5 -1 -9 -9 -9 -8 0 -12 4 -9 9 3 4 7 8 9 8 2 0 6 -4 9 -8z m-807
-47 c0 -8 -4 -12 -9 -9 -5 3 -6 10 -3 15 9 13 12 11 12 -6z m-297 -171 c0 -3
-7 -12 -15 -20 -16 -17 -18 -14 -9 10 6 15 24 23 24 10z m-150 -154 c-8 -5
-19 -10 -25 -10 -5 0 -3 5 5 10 8 5 20 10 25 10 6 0 3 -5 -5 -10z m1950 -136
c0 -8 -19 -13 -24 -6 -3 5 1 9 9 9 8 0 15 -2 15 -3z m107 -220 c-3 -3 -12 -4
-19 -1 -8 3 -5 6 6 6 11 1 17 -2 13 -5z m26 -130 c-3 -8 -7 -14 -10 -14 -3 0
-3 6 0 14 3 7 0 20 -6 27 -10 11 -9 11 5 0 9 -7 14 -19 11 -27z m-2323 -586
c0 -4 -4 -8 -9 -8 -6 0 -12 4 -15 8 -3 5 1 9 9 9 8 0 15 -4 15 -9z m2314 -27
c3 -5 -2 -15 -12 -22 -15 -12 -16 -12 -5 2 7 9 10 19 6 22 -3 4 -4 7 0 7 3 0
8 -4 11 -9z m-4 -47 c0 -8 -19 -13 -24 -6 -3 5 1 9 9 9 8 0 15 -2 15 -3z m-36
-72 c3 -5 -1 -9 -9 -9 -8 0 -12 4 -9 9 3 4 7 8 9 8 2 0 6 -4 9 -8z m-2184 -92
c0 -5 -5 -10 -11 -10 -5 0 -7 5 -4 10 3 6 8 10 11 10 2 0 4 -4 4 -10z m50 -94
c0 -3 -4 -8 -10 -11 -5 -3 -10 -1 -10 4 0 6 5 11 10 11 6 0 10 -2 10 -4z m28
-31 c-3 -3 -9 2 -12 12 -6 14 -5 15 5 6 7 -7 10 -15 7 -18z m1992 -9 c0 -3 -4
-8 -10 -11 -5 -3 -10 -1 -10 4 0 6 5 11 10 11 6 0 10 -2 10 -4z m-1878 -120
c7 4 8 2 4 -5 -9 -13 -26 -5 -25 12 0 9 2 8 6 -1 2 -6 10 -9 15 -6z m1672 -85
c3 -5 -5 -16 -17 -24 -19 -12 -24 -13 -24 -2 0 8 3 14 6 13 20 -2 31 3 26 12
-3 6 -4 10 -1 10 3 0 7 -4 10 -9z m-133 -114 c-10 -9 -11 -8 -5 6 3 10 9 15
12 12 3 -3 0 -11 -7 -18z m-1036 -116 c3 -5 2 -12 -3 -15 -5 -3 -9 1 -9 9 0
17 3 19 12 6z m685 -31 c0 -5 -4 -10 -10 -10 -5 0 -10 5 -10 10 0 6 5 10 10
10 6 0 10 -4 10 -10z m-300 -40 c0 -5 -2 -10 -4 -10 -3 0 -8 5 -11 10 -3 6 -1
10 4 10 6 0 11 -4 11 -10z"/>
<path d="M1541 2463 c-1 -17 16 -25 25 -12 4 7 3 9 -4 5 -5 -3 -13 0 -15 6 -4
9 -6 10 -6 1z"/>
<path d="M775 2380 c3 -5 8 -10 11 -10 2 0 4 5 4 10 0 6 -5 10 -11 10 -5 0 -7
-4 -4 -10z"/>
<path d="M665 2320 c-3 -6 1 -7 9 -4 18 7 21 14 7 14 -6 0 -13 -4 -16 -10z"/>
<path d="M1976 2282 c-2 -4 -1 -14 5 -22 5 -8 9 -11 9 -6 0 5 6 5 13 0 7 -5 5
-2 -5 7 -9 9 -14 19 -11 23 4 3 4 6 0 6 -3 0 -8 -4 -11 -8z"/>
<path d="M2100 2176 c0 -2 7 -7 16 -10 8 -3 12 -2 9 4 -6 10 -25 14 -25 6z"/>
<path d="M2166 2098 c3 -5 10 -6 15 -3 13 9 11 12 -6 12 -8 0 -12 -4 -9 -9z"/>
<path d="M202 1835 c-7 -8 -9 -15 -4 -15 5 0 15 7 22 15 16 19 -1 19 -18 0z"/>
<path d="M190 1799 c0 -5 5 -7 10 -4 6 3 10 8 10 11 0 2 -4 4 -10 4 -5 0 -10
-5 -10 -11z"/>
<path d="M150 1766 c0 -2 8 -10 18 -17 15 -13 16 -12 3 4 -13 16 -21 21 -21
13z"/>
<path d="M2485 1500 c3 -5 8 -10 11 -10 2 0 4 5 4 10 0 6 -5 10 -11 10 -5 0
-7 -4 -4 -10z"/>
<path d="M2486 1281 c-4 -5 -2 -12 3 -15 5 -4 12 -2 15 3 4 5 2 12 -3 15 -5 4
-12 2 -15 -3z"/>
<path d="M64 1208 c3 -15 26 -23 26 -8 0 6 -4 9 -9 6 -5 -4 -12 -1 -14 4 -3 6
-4 5 -3 -2z"/>
<path d="M61 1164 c0 -11 3 -14 6 -6 3 7 2 16 -1 19 -3 4 -6 -2 -5 -13z"/>
<path d="M80 1154 c0 -8 5 -12 10 -9 6 4 8 11 5 16 -9 14 -15 11 -15 -7z"/>
<path d="M1900 255 c-7 -9 -10 -18 -6 -22 3 -3 6 -1 6 6 0 7 4 10 9 6 5 -3 12
-1 15 4 11 17 -11 21 -24 6z"/>
<path d="M967 127 c-3 -7 3 -13 14 -13 13 0 15 3 7 13 -6 7 -12 13 -13 13 -2
0 -5 -6 -8 -13z"/>
</g>
</svg>
